<?xml version="1.0" encoding="UTF-8"?>
<svg version="1.1" xmlns="http://www.w3.org/2000/svg" width="512" height="512">
<path d="M0 0 C1.45108658 0.00273422 1.45108658 0.00273422 2.93148804 0.00552368 C17.26440977 0.05095174 31.21023917 0.55983928 45.3125 3.3125 C46.65803955 3.55395752 46.65803955 3.55395752 48.03076172 3.80029297 C95.57547049 12.40346381 138.5800725 34.88424602 174.1015625 67.32421875 C175.86330083 68.9085382 177.64338787 70.40640998 179.5 71.875 C182.42583127 74.41072043 184.84633456 77.09439933 187.34765625 80.0390625 C189.49985873 82.52928485 191.74775174 84.91250425 194 87.3125 C224.16343523 120.53334848 243.60815878 162.99083273 252.625 206.6875 C252.77243652 207.39817627 252.91987305 208.10885254 253.07177734 208.84106445 C256.05713787 224.48358366 256.6873098 240.11919606 256.625 256 C256.62226578 257.45108658 256.62226578 257.45108658 256.61947632 258.93148804 C256.57404826 273.26440977 256.06516072 287.21023917 253.3125 301.3125 C253.15152832 302.20952637 252.99055664 303.10655273 252.82470703 304.03076172 C244.22153619 351.57547049 221.74075398 394.5800725 189.30078125 430.1015625 C187.7164618 431.86330083 186.21859002 433.64338787 184.75 435.5 C182.21427957 438.42583127 179.53060067 440.84633456 176.5859375 443.34765625 C174.09571515 445.49985873 171.71249575 447.74775174 169.3125 450 C136.09165152 480.16343523 93.63416727 499.60815878 49.9375 508.625 C49.22682373 508.77243652 48.51614746 508.91987305 47.78393555 509.07177734 C32.14141634 512.05713787 16.50580394 512.6873098 0.625 512.625 C-0.34239105 512.62317719 -1.3097821 512.62135437 -2.30648804 512.61947632 C-16.63940977 512.57404826 -30.58523917 512.06516072 -44.6875 509.3125 C-45.58452637 509.15152832 -46.48155273 508.99055664 -47.40576172 508.82470703 C-94.95047049 500.22153619 -137.9550725 477.74075398 -173.4765625 445.30078125 C-175.23830083 443.7164618 -177.01838787 442.21859002 -178.875 440.75 C-181.80083127 438.21427957 -184.22133456 435.53060067 -186.72265625 432.5859375 C-188.87485873 430.09571515 -191.12275174 427.71249575 -193.375 425.3125 C-223.53843523 392.09165152 -242.98315878 349.63416727 -252 305.9375 C-252.14743652 305.22682373 -252.29487305 304.51614746 -252.44677734 303.78393555 C-255.43213787 288.14141634 -256.0623098 272.50580394 -256 256.625 C-255.99817719 255.65760895 -255.99635437 254.6902179 -255.99447632 253.69351196 C-255.94904826 239.36059023 -255.44016072 225.41476083 -252.6875 211.3125 C-252.44604248 209.96696045 -252.44604248 209.96696045 -252.19970703 208.59423828 C-243.59653619 161.04952951 -221.11575398 118.0449275 -188.67578125 82.5234375 C-187.0914618 80.76169917 -185.59359002 78.98161213 -184.125 77.125 C-181.58927957 74.19916873 -178.90560067 71.77866544 -175.9609375 69.27734375 C-173.47071515 67.12514127 -171.08749575 64.87724826 -168.6875 62.625 C-135.46665152 32.46156477 -93.00916727 13.01684122 -49.3125 4 C-48.60182373 3.85256348 -47.89114746 3.70512695 -47.15893555 3.55322266 C-31.51641634 0.56786213 -15.88080394 -0.0623098 0 0 Z M-102.6875 60.3125 C-103.34943359 60.66425293 -104.01136719 61.01600586 -104.69335938 61.37841797 C-123.23408256 71.24758282 -139.45471307 83.8887988 -154.6875 98.3125 C-155.61820312 99.1890625 -156.54890625 100.065625 -157.5078125 100.96875 C-164.65727193 107.89415229 -170.73273131 115.35815953 -176.6875 123.3125 C-177.31156738 124.12944336 -177.31156738 124.12944336 -177.94824219 124.96289062 C-206.4852075 162.39361278 -221.1747763 208.76301208 -221.0625 255.625 C-221.06228851 256.4475528 -221.06207703 257.27010559 -221.06185913 258.11758423 C-220.9715528 293.57373255 -212.64866527 328.08545571 -195.6875 359.3125 C-195.15987061 360.30540039 -195.15987061 360.30540039 -194.62158203 361.31835938 C-184.75241718 379.85908256 -172.1112012 396.07971307 -157.6875 411.3125 C-156.8109375 412.24320312 -155.934375 413.17390625 -155.03125 414.1328125 C-148.10584771 421.28227193 -140.64184047 427.35773131 -132.6875 433.3125 C-132.14287109 433.72854492 -131.59824219 434.14458984 -131.03710938 434.57324219 C-93.60638722 463.1102075 -47.23698792 477.7997763 -0.375 477.6875 C0.4475528 477.68728851 1.27010559 477.68707703 2.11758423 477.68685913 C37.57373255 477.5965528 72.08545571 469.27366527 103.3125 452.3125 C103.97443359 451.96074707 104.63636719 451.60899414 105.31835938 451.24658203 C123.85908256 441.37741718 140.07971307 428.7362012 155.3125 414.3125 C156.24320312 413.4359375 157.17390625 412.559375 158.1328125 411.65625 C165.28227193 404.73084771 171.35773131 397.26684047 177.3125 389.3125 C177.72854492 388.76787109 178.14458984 388.22324219 178.57324219 387.66210938 C207.1102075 350.23138722 221.7997763 303.86198792 221.6875 257 C221.68718277 255.76617081 221.68718277 255.76617081 221.68685913 254.50741577 C221.5965528 219.05126745 213.27366527 184.53954429 196.3125 153.3125 C195.78487061 152.31959961 195.78487061 152.31959961 195.24658203 151.30664062 C185.37741718 132.76591744 172.7362012 116.54528693 158.3125 101.3125 C157.4359375 100.38179688 156.559375 99.45109375 155.65625 98.4921875 C148.73084771 91.34272807 141.26684047 85.26726869 133.3125 79.3125 C132.76787109 78.89645508 132.22324219 78.48041016 131.66210938 78.05175781 C94.23138722 49.5147925 47.86198792 34.8252237 1 34.9375 C0.1774472 34.93771149 -0.64510559 34.93792297 -1.49258423 34.93814087 C-36.94873255 35.0284472 -71.46045571 43.35133473 -102.6875 60.3125 Z " fill="#000000" transform="translate(255.6875,-0.3125)"/>
</svg>
